<svg xmlns="http://www.w3.org/2000/svg" version="1.1" viewBox="-0.07 0.63 409.77 411.35">
<path d="M0 0 C44.26002388 22.32733706 80.25511229 61.69344567 96.00146484 109.00927734 C98.12107865 115.63652805 100.1368973 122.29586677 102 129 C102.18643066 129.59498291 102.37286133 130.18996582 102.56494141 130.80297852 C103.67234455 136.39530223 103.34863303 142.34702672 103.4050293 148.03564453 C103.42667924 149.67876106 103.46086489 151.32176014 103.50756836 152.96435547 C103.57445527 155.34133998 103.60199559 157.71595844 103.62109375 160.09375 C103.64892441 160.82613892 103.67675507 161.55852783 103.70542908 162.31311035 C103.69702148 164.39648438 103.69702148 164.39648438 103 168 C97.94057648 172.31474083 93.8357254 173.12461437 87.35310364 173.14044189 C86.33479565 173.14489858 86.33479565 173.14489858 85.29591578 173.1494453 C83.01603104 173.15813225 80.73619881 173.15964055 78.45629883 173.16113281 C76.82353605 173.16576108 75.19077435 173.17078575 73.55801392 173.17617798 C69.11771379 173.18930523 64.67742879 173.19574785 60.23711228 173.20018864 C57.46223322 173.20311951 54.68735829 173.20722439 51.91248131 173.21169281 C43.22854055 173.22537007 34.54460925 173.23503498 25.86065847 173.2388947 C15.84048928 173.24337284 5.82045669 173.26090842 -4.19967097 173.2898953 C-11.94671666 173.31152727 -19.69372397 173.32159983 -27.44079953 173.32293582 C-32.06663182 173.32398298 -36.69233576 173.32987158 -41.31813622 173.34775543 C-45.67248478 173.36426178 -50.02660888 173.3663792 -54.38097763 173.35761642 C-55.97567026 173.35684736 -57.57037509 173.36117156 -59.16503716 173.37107468 C-74.33461928 173.45972417 -74.33461928 173.45972417 -81 170 C-85.95427251 165.04572749 -86.12408901 160.93155191 -86.14044189 154.14346313 C-86.14341302 153.45415848 -86.14638414 152.76485383 -86.1494453 152.05466115 C-86.15811494 149.74557558 -86.15963906 147.43654196 -86.16113281 145.12744141 C-86.16576215 143.47158193 -86.17078697 141.81572351 -86.17617798 140.15986633 C-86.18929133 135.6619103 -86.19574466 131.16396919 -86.20018864 126.66599703 C-86.2031206 123.85578365 -86.2072256 121.04557434 -86.21169281 118.23536301 C-86.22536387 109.44250686 -86.2350329 100.64966003 -86.2388947 91.856794 C-86.24337704 81.70700451 -86.26093473 71.55734957 -86.2898953 61.407601 C-86.31150667 53.56120421 -86.32159866 45.71484529 -86.32293582 37.86841905 C-86.32398408 33.18230349 -86.32989656 28.49631449 -86.34775543 23.81023026 C-86.36422708 19.402525 -86.36639606 14.99504157 -86.35761642 10.58731651 C-86.35684561 8.97081979 -86.36119465 7.35431118 -86.37107468 5.73784447 C-86.38378542 3.52846702 -86.37792281 1.31987637 -86.36749268 -0.88949585 C-86.36895924 -2.12503393 -86.3704258 -3.36057201 -86.3719368 -4.63355064 C-85.81743857 -9.65238774 -84.19393557 -12.8956096 -80.5 -16.3125 C-61.79150684 -28.94073288 -17.88957287 -8.85823795 0 0 Z " fill="#00A8F4" transform="translate(306,21)"/>
<path d="M0 0 C0.69509706 -0.00467997 1.39019411 -0.00935994 2.10635471 -0.01418173 C4.42323245 -0.02609738 6.73951491 -0.01668836 9.05639648 -0.00723267 C10.72240543 -0.01129991 12.38841169 -0.01664264 14.05441284 -0.02316284 C18.57091274 -0.03682414 23.08720674 -0.0315427 27.60371017 -0.02202559 C32.33346862 -0.01442286 37.0632096 -0.02147631 41.79296875 -0.02618408 C49.73530233 -0.03163984 57.67755218 -0.02445472 65.61987305 -0.01016235 C74.79829271 0.00616381 83.97651244 0.00087518 93.15492725 -0.01564157 C101.03959519 -0.02926154 108.92420299 -0.03117359 116.8088789 -0.02332556 C121.51618412 -0.01865186 126.22339541 -0.01801587 130.93069458 -0.02793503 C135.35651113 -0.03660984 139.78207026 -0.03057339 144.20785904 -0.01325226 C145.8307973 -0.00929017 147.45375728 -0.01041672 149.07668686 -0.01704025 C151.2947425 -0.02525707 153.51197693 -0.01493345 155.72998047 0 C156.97029526 0.00113108 158.21061005 0.00226215 159.48851013 0.00342751 C164.54388776 0.56866805 167.77945661 2.17806232 171.17749023 5.94345093 C173.95517884 9.9556678 173.99553612 12.21394872 174.01216125 17.11087036 C174.01583794 17.81071682 174.01951463 18.51056328 174.02330273 19.23161721 C174.03435952 21.58836859 174.03818678 23.94507591 174.04199219 26.30184937 C174.04825536 27.98697043 174.05490203 29.6720901 174.06190491 31.35720825 C174.07932875 35.94411844 174.08987054 40.5310182 174.09811044 45.1179533 C174.1032579 47.98276387 174.10933376 50.84757118 174.11562157 53.71237946 C174.13467792 62.67289583 174.14890784 71.63340394 174.15723354 80.59393668 C174.16700715 90.94244591 174.19332804 101.29074131 174.23373443 111.63917518 C174.26388174 119.63414943 174.27870111 127.62906234 174.28201455 135.62409234 C174.28436671 140.40082543 174.29334862 145.17733019 174.31847572 149.95400238 C174.34173712 154.44872749 174.34599751 158.94307365 174.33571434 163.43784332 C174.33521839 165.08659627 174.34155632 166.73536774 174.35527039 168.38406372 C174.37296447 170.63752897 174.36589678 172.8896306 174.35273743 175.14309692 C174.35512578 176.40335567 174.35751413 177.66361443 174.35997486 178.96206284 C173.66664971 183.75090069 171.42208007 186.7085211 168.17749023 190.19345093 C161.77248765 193.48250631 154.20606128 192.34041217 147.36499023 191.19345093 C146.49696777 191.05399048 145.62894531 190.91453003 144.73461914 190.77084351 C117.58117271 186.25683712 90.49409485 177.45952526 67.86499023 161.38095093 C66.75372992 160.62598549 65.64169486 159.87215967 64.52905273 159.11923218 C57.36725313 154.20705374 50.87672684 148.90756003 44.58374023 142.92391968 C42.66171822 141.12616632 40.75545903 139.44087842 38.72436523 137.77938843 C34.97659817 134.63576961 32.00661951 131.11357977 28.86499023 127.38095093 C28.10057617 126.50438843 27.33616211 125.62782593 26.54858398 124.72470093 C1.57974162 95.65299714 -20.51063669 51.49817675 -18.01000977 12.19345093 C-17.06439383 8.07326721 -16.23097375 6.2258908 -13.13500977 3.38095093 C-8.59287994 0.67276172 -5.26173346 0.00479832 0 0 Z " fill="#00A8F4" transform="translate(18.135009765625,219.61904907226563)"/>
<path d="M0 0 C4.841971 4.58713042 6.23234796 7.72863009 6.50363445 14.42534542 C6.5053103 15.62971028 6.50698614 16.83407515 6.50871277 18.07493591 C6.51097833 18.74876078 6.51324388 19.42258565 6.51557809 20.11682945 C6.52189217 22.36753605 6.5210904 24.61818203 6.52026367 26.86889648 C6.52325674 28.48549477 6.52665961 30.10209233 6.53044128 31.71868896 C6.53926948 36.10502332 6.54161888 40.49133816 6.54225707 44.87768054 C6.54296813 47.61871782 6.5451035 50.35975016 6.54775429 53.10078621 C6.55700311 62.66493164 6.56108967 72.22906314 6.56030273 81.79321289 C6.55970175 90.7062953 6.57025885 99.61931723 6.5860464 108.53238434 C6.59912265 116.18772015 6.60448661 123.8430362 6.60384732 131.4983831 C6.6035924 136.06931661 6.6064405 140.64019633 6.61702538 145.2111187 C6.626708 149.50964051 6.6267844 153.80805712 6.61950874 158.10658264 C6.61846318 159.6827618 6.62082415 161.25894752 6.6268692 162.83511543 C6.63459602 164.98956057 6.62994 167.14364302 6.62223816 169.29808044 C6.62278293 170.50282233 6.62332769 171.70756422 6.62388897 172.94881344 C6.17924867 178.84638525 4.43377354 182.95247507 0.375 187.25 C-3.20224166 189.62227368 -6.41182391 189.5062339 -10.63339233 189.51742554 C-11.3390312 189.52195665 -12.04467006 189.52648776 -12.77169192 189.53115618 C-15.13610989 189.54381619 -17.50029798 189.54217881 -19.86474609 189.54052734 C-21.56001583 189.54651159 -23.25528284 189.5533169 -24.95054626 189.56088257 C-29.55595184 189.57856012 -34.16128312 189.58323868 -38.76671934 189.58451414 C-42.61116529 189.58641302 -46.45559393 189.5937704 -50.30003321 189.60085833 C-59.37027846 189.61714648 -68.440484 189.62202689 -77.51074219 189.62060547 C-86.86751186 189.61940384 -96.22405095 189.64050901 -105.58076227 189.6720928 C-113.61400226 189.69824298 -121.64716689 189.7089733 -129.68044913 189.70769465 C-134.4783772 189.70718465 -139.27610037 189.71288854 -144.07398605 189.73405075 C-148.58681217 189.75341203 -153.09923747 189.75357214 -157.61207771 189.73901749 C-159.26727572 189.73692567 -160.92249868 189.74165248 -162.57765388 189.7537384 C-164.83978695 189.76918512 -167.10053692 189.75988821 -169.36264038 189.74447632 C-170.62767584 189.74556585 -171.8927113 189.74665539 -173.19608116 189.74777794 C-178.23388367 189.01643752 -181.40989305 186.84194392 -184.4765625 182.82421875 C-191.57695816 166.90870603 -180.16087132 136.68273106 -174.5859375 121.52734375 C-168.29063576 105.24999679 -160.34667519 90.05503276 -149.625 76.25 C-148.64557767 74.89601823 -147.66639571 73.54186255 -146.6875 72.1875 C-143.62991779 68.11630834 -140.22020581 64.38760069 -136.7734375 60.64453125 C-135.32182644 59.02664474 -133.92342936 57.35964795 -132.578125 55.65234375 C-130.82731194 53.49884368 -129.11483666 51.78186238 -127 50 C-122.95043803 46.54729511 -119.02765986 42.97245492 -115.1171875 39.36328125 C-112.41213199 37.06949593 -109.60092759 35.17822275 -106.625 33.25 C-105.50967126 32.48736078 -104.3964602 31.72161723 -103.28515625 30.953125 C-80.8833261 15.59685584 -56.33052385 5.39912364 -29.625 0.25 C-28.39394531 0.00636719 -27.16289062 -0.23726562 -25.89453125 -0.48828125 C-6.27322279 -3.9343175 -6.27322279 -3.9343175 0 0 Z " fill="#00A8F4" transform="translate(401.625,218.75)"/>
<path d="M0 0 C8.13094703 4.72588575 16.42635279 11.62671463 19.49609375 20.8359375 C19.98569177 26.61319408 19.32148212 30.03336952 16.46875 35.07421875 C15.34741668 36.97914605 15.34741668 36.97914605 14.49609375 39.8359375 C14.82609375 40.4959375 15.15609375 41.1559375 15.49609375 41.8359375 C16.23220047 47.8925118 16.52319856 53.27786235 12.87109375 58.3984375 C9.34415047 62.33453893 6.28678013 64.5019008 0.91796875 65.14453125 C-5.50960793 65.43429905 -9.33183036 64.66327366 -14.50390625 60.8359375 C-16.21071572 59.21040467 -17.8805082 57.54477755 -19.50390625 55.8359375 C-21.15390625 54.5159375 -22.80390625 53.1959375 -24.50390625 51.8359375 C-35.72390625 63.0559375 -46.94390625 74.2759375 -58.50390625 85.8359375 C-56.75054858 89.34265284 -55.87528018 90.61540026 -53.12890625 93.0859375 C-48.30102623 97.82310579 -45.36548211 102.52849619 -45.00390625 109.3984375 C-45.29439442 114.84274811 -47.20246281 118.47955244 -50.9765625 122.34375 C-55.62791995 126.19239091 -60.54022204 127.10385676 -66.50390625 126.8359375 C-67.53515625 126.4234375 -68.56640625 126.0109375 -69.62890625 125.5859375 C-72.39794847 124.5129263 -72.39794847 124.5129263 -74.29296875 125.8125 C-75.26363281 126.50472656 -75.26363281 126.50472656 -76.25390625 127.2109375 C-80.93973851 130.47492371 -84.92816687 130.80486536 -90.50390625 129.8359375 C-93.4173545 128.85043612 -96.0703885 127.73573334 -98.50390625 125.8359375 C-98.83390625 124.8459375 -99.16390625 123.8559375 -99.50390625 122.8359375 C-100.10847656 122.53558594 -100.71304688 122.23523438 -101.3359375 121.92578125 C-104.08766153 120.54248214 -105.34042721 118.8436571 -107.19140625 116.3984375 C-107.79339844 115.61597656 -108.39539063 114.83351563 -109.015625 114.02734375 C-112.0163178 109.60900082 -112.15654455 105.00551986 -111.50390625 99.8359375 C-110.41344893 97.24857968 -109.06418431 95.19999517 -107.50390625 92.8359375 C-106.17057292 89.8359375 -106.17057292 89.8359375 -107.50390625 86.8359375 C-108.00305461 81.6235194 -108.17619771 77.23223515 -105.87890625 72.4609375 C-101.35475859 67.46056377 -97.70995331 64.04617009 -90.69140625 63.5859375 C-85.5117128 63.37916331 -81.72611774 65.84509841 -77.80078125 69.02734375 C-76.9603125 69.80980469 -76.11984375 70.59226562 -75.25390625 71.3984375 C-74.403125 72.18347656 -73.55234375 72.96851563 -72.67578125 73.77734375 C-71.26767594 75.11200472 -69.87578097 76.46406278 -68.50390625 77.8359375 C-64.69143109 74.72371288 -61.2469518 71.65793028 -58.06640625 67.8984375 C-55.07863727 64.3802556 -51.85124839 61.40077449 -48.33984375 58.4140625 C-45.92938398 56.34209282 -43.72318304 54.11069621 -41.50390625 51.8359375 C-40.8284375 51.18238281 -40.15296875 50.52882812 -39.45703125 49.85546875 C-38.73 49.14777344 -38.00296875 48.44007812 -37.25390625 47.7109375 C-36.568125 47.04835937 -35.88234375 46.38578125 -35.17578125 45.703125 C-33.28442423 43.83957108 -33.28442423 43.83957108 -32.50390625 40.8359375 C-33.14328125 40.5678125 -33.78265625 40.2996875 -34.44140625 40.0234375 C-36.50390625 38.8359375 -36.50390625 38.8359375 -37.50390625 35.8359375 C-38.10203125 35.5678125 -38.70015625 35.2996875 -39.31640625 35.0234375 C-43.2860804 32.86847153 -45.11435851 29.00458071 -46.50390625 24.8359375 C-47.06747305 19.14608039 -46.83187058 14.66685347 -43.50390625 9.8359375 C-38.95309128 5.15321485 -35.71362397 3.01425515 -29.12890625 2.6484375 C-25.50390625 2.8359375 -25.50390625 2.8359375 -22.50390625 4.1484375 C-19.62556786 5.14844006 -19.62556786 5.14844006 -17.6796875 3.890625 C-16.4631146 2.99796144 -15.27311299 2.06757074 -14.1171875 1.09765625 C-9.9122183 -2.19097583 -4.71276063 -2.1909558 0 0 Z M-10.50390625 12.8359375 C-9.18269797 15.76823943 -7.75752428 17.82258649 -5.46484375 20.0703125 C-4.88476562 20.64394531 -4.3046875 21.21757813 -3.70703125 21.80859375 C-2.80210937 22.68837891 -2.80210937 22.68837891 -1.87890625 23.5859375 C-1.26789063 24.18792969 -0.656875 24.78992188 -0.02734375 25.41015625 C1.47597999 26.88999055 2.98544231 28.36358426 4.49609375 29.8359375 C7.12020203 27.55851982 7.12020203 27.55851982 7.68359375 24.1484375 C5.56784658 18.24661645 0.62609082 14.25593555 -4.50390625 10.8359375 C-7.68880632 10.5585874 -7.68880632 10.5585874 -10.50390625 12.8359375 Z M-33.37890625 15.8984375 C-35.23636773 19.09739893 -34.37546547 21.32287299 -33.50390625 24.8359375 C-31.79959123 27.40159424 -29.71708253 29.48849206 -27.52734375 31.64453125 C-26.62213486 32.56190819 -26.62213486 32.56190819 -25.69863892 33.49781799 C-24.42325515 34.78163773 -23.14021777 36.05789407 -21.85009766 37.3269043 C-19.88285383 39.2695393 -17.95277056 41.24440091 -16.0234375 43.22460938 C-14.77683095 44.4708455 -13.52819772 45.71505833 -12.27734375 46.95703125 C-11.70414398 47.54753769 -11.13094421 48.13804413 -10.54037476 48.7464447 C-7.47029509 51.71266327 -6.06505518 52.7539545 -1.70556641 53.39086914 C-0.12074463 53.11617798 -0.12074463 53.11617798 1.49609375 52.8359375 C3.74712035 50.05487906 3.74712035 50.05487906 3.51269531 47.08154297 C2.1048223 42.58676299 -0.45806681 40.16308327 -3.76953125 36.90625 C-4.39994324 36.27105438 -5.03035522 35.63585876 -5.67987061 34.98141479 C-7.01204729 33.64584401 -8.35052585 32.31653323 -9.69482422 30.99316406 C-11.75061149 28.96418929 -13.77832161 26.90987449 -15.8046875 24.8515625 C-17.10386823 23.55568508 -18.40459874 22.26135915 -19.70703125 20.96875 C-20.31242737 20.35323273 -20.91782349 19.73771545 -21.54156494 19.10354614 C-24.897436 15.76195652 -24.897436 15.76195652 -29.31152344 14.38623047 C-31.53124382 14.72421578 -31.53124382 14.72421578 -33.37890625 15.8984375 Z M-94.37890625 76.8984375 C-96.06921518 79.80952509 -95.96426603 81.4930893 -95.50390625 84.8359375 C-93.76469315 87.45098125 -91.58374049 89.54959069 -89.3359375 91.73046875 C-88.70411057 92.36329269 -88.07228363 92.99611664 -87.42131042 93.64811707 C-86.08418398 94.98056964 -84.73968347 96.30565755 -83.38842773 97.6237793 C-81.32357365 99.64143393 -79.28666717 101.68442352 -77.25195312 103.73242188 C-75.94819129 105.02502975 -74.64290191 106.3160991 -73.3359375 107.60546875 C-72.72740433 108.21582474 -72.11887115 108.82618073 -71.49189758 109.45503235 C-67.22941717 113.63293168 -67.22941717 113.63293168 -61.50390625 114.8359375 C-59.19886581 113.50440484 -59.19886581 113.50440484 -57.50390625 111.8359375 C-57.76759036 105.30755411 -59.92267128 102.53617817 -64.515625 98.0625 C-65.12146927 97.45328705 -65.72731354 96.8440741 -66.35151672 96.21640015 C-67.63129192 94.93692293 -68.91852008 93.66486216 -70.21264648 92.39990234 C-72.1871171 90.46514039 -74.13052331 88.50270327 -76.07226562 86.53515625 C-77.32247079 85.29250976 -78.57436937 84.05156419 -79.828125 82.8125 C-80.69566658 81.93448227 -80.69566658 81.93448227 -81.58073425 81.03872681 C-85.15790427 77.58352672 -89.3078114 74.02481708 -94.37890625 76.8984375 Z M-97.50390625 99.8359375 C-99.83669358 101.72700891 -99.83669358 101.72700891 -99.69140625 104.8984375 C-98.6940147 110.59438443 -93.99848626 114.58945113 -89.50390625 117.8359375 C-86.74927275 118.56584039 -85.35177964 118.38127496 -82.50390625 117.8359375 C-82.11090687 114.01558984 -82.11090687 114.01558984 -83.77319336 112.09667969 C-84.35335205 111.53110352 -84.93351074 110.96552734 -85.53125 110.3828125 C-86.15837891 109.7640625 -86.78550781 109.1453125 -87.43164062 108.5078125 C-88.09486328 107.87359375 -88.75808594 107.239375 -89.44140625 106.5859375 C-90.10076172 105.93625 -90.76011719 105.2865625 -91.43945312 104.6171875 C-94.09696439 101.47136627 -94.09696439 101.47136627 -97.50390625 99.8359375 Z " fill="#03A9F4" transform="translate(161.50390625,56.1640625)"/>
<path d="M0 0 C0.66 0.33 1.32 0.66 2 1 C1.030625 1.804375 0.06125 2.60875 -0.9375 3.4375 C-4.33901582 6.77498729 -4.76208999 9.59421783 -4.9921875 14.2421875 C-4.99476562 14.82226562 -4.99734375 15.40234375 -5 16 C-5.66 15.67 -6.32 15.34 -7 15 C-6.74610842 9.17318823 -6.38883987 5.25584472 -2 1 C-1.34 0.67 -0.68 0.34 0 0 Z " fill="#0FB4F7" transform="translate(7,222)"/>
</svg>